<?xml version="1.0" standalone="no"?><!DOCTYPE svg PUBLIC "-//W3C//DTD SVG 1.1//EN" "http://www.w3.org/Graphics/SVG/1.1/DTD/svg11.dtd"><svg t="1619193057855" class="icon" viewBox="0 0 1024 1024" version="1.1" xmlns="http://www.w3.org/2000/svg" p-id="2151" xmlns:xlink="http://www.w3.org/1999/xlink" width="200" height="200"><defs><style type="text/css"></style></defs><path d="M513.74762667 925.99296c-5.82542222 0-11.06830222-1.74762667-15.72864-5.24288-6.99050667-5.24288-135.14979555-116.50844445-135.14979556-116.50844445-5.24288-5.24288-8.15559111-12.23338667-8.15559111-19.22389333V457.62901333L117.61891555 184.41671111c-9.32067555-11.65084445-7.57304889-29.12711111 4.66033778-38.44778666 4.66033778-3.49525333 11.06830222-5.82542222 16.89372445-5.82542223h626.81543111c7.57304889 0 13.98101333 2.91271111 19.22389333 8.15559111 5.24288 5.24288 8.15559111 12.23338667 8.15559111 19.22389334 0 6.40796445-2.33016889 12.81592889-6.40796444 18.05880888L541.12711111 458.21155555v440.40192c0 15.14609778-12.23338667 27.37948445-27.37948444 27.37948445z" fill="#1684FC" p-id="2152"></path><path d="M681.51978667 870.65144889c-6.99050667 0-13.98101333-2.91271111-19.22389334-8.15559111-5.24288-5.24288-8.15559111-12.23338667-8.15559111-19.22389333 0-15.14609778 12.23338667-27.37948445 27.37948445-27.37948445H893.56515555c15.14609778 0 27.37948445 12.23338667 27.37948445 27.37948445s-12.23338667 27.37948445-27.37948445 27.37948444H681.51978667z m0-171.26741334c-15.14609778 0-27.37948445-12.23338667-27.37948445-27.37948444s12.23338667-27.37948445 27.37948445-27.37948444H893.56515555c15.14609778 0 27.37948445 12.23338667 27.37948445 27.37948444s-12.23338667 27.37948445-27.37948445 27.37948444H681.51978667z m0-169.51978666c-15.14609778 0-27.37948445-12.81592889-26.79694222-27.96202667 0-15.14609778 12.23338667-26.79694222 26.79694222-26.79694222h211.46282666c15.14609778 0 27.37948445 12.23338667 27.37948445 27.37948445s-12.23338667 27.37948445-27.37948445 27.37948444H681.51978667z" fill="#1684FC" p-id="2153"></path></svg>